<?xml version="1.0" encoding="utf-8"?>
<!-- Generator: Adobe Illustrator 18.1.1, SVG Export Plug-In . SVG Version: 6.00 Build 0)  -->
<svg version="1.1" id="Calque_1" xmlns="http://www.w3.org/2000/svg" xmlns:xlink="http://www.w3.org/1999/xlink" x="0px" y="0px"
	 viewBox="0 0 439 145.5" enable-background="new 0 0 439 145.5" xml:space="preserve">
<g>
	<g opacity="0.4">
		<g>
			<defs>
				<rect id="SVGID_1_" x="6.5" y="48.7" width="64" height="48.3"/>
			</defs>
			<clipPath id="SVGID_2_">
				<use xlink:href="#SVGID_1_"  overflow="visible"/>
			</clipPath>
		</g>
	</g>
	<g opacity="0.4">
		<g>
			<defs>
				<rect id="SVGID_3_" x="70.1" y="96.9" width="1.9" height="0"/>
			</defs>
			<clipPath id="SVGID_4_">
				<use xlink:href="#SVGID_3_"  overflow="visible"/>
			</clipPath>
			<g clip-path="url(#SVGID_4_)">
				<defs>
					<rect id="SVGID_5_" x="70.1" y="96.9" width="1.9" height="0"/>
				</defs>
				<clipPath id="SVGID_6_">
					<use xlink:href="#SVGID_5_"  overflow="visible"/>
				</clipPath>
				<path clip-path="url(#SVGID_6_)" fill="#5F6062" d="M70.1,96.9c0.6,0,1.3,0,1.9,0C71.3,97,70.7,97,70.1,96.9"/>
			</g>
		</g>
	</g>
	<g opacity="0.6">
		<g>
			<defs>
				<rect id="SVGID_7_" x="21.6" y="35.9" width="50.3" height="61.1"/>
			</defs>
			<clipPath id="SVGID_8_">
				<use xlink:href="#SVGID_7_"  overflow="visible"/>
			</clipPath>
			<g clip-path="url(#SVGID_8_)">
				<defs>
					<rect id="SVGID_9_" x="21.6" y="35.9" width="50.3" height="61.1"/>
				</defs>
				<clipPath id="SVGID_10_">
					<use xlink:href="#SVGID_9_"  overflow="visible"/>
				</clipPath>
			</g>
		</g>
	</g>
	<g opacity="0.8">
		<g>
			<defs>
				<rect id="SVGID_11_" x="39.8" y="23" width="32.3" height="74"/>
			</defs>
			<clipPath id="SVGID_12_">
				<use xlink:href="#SVGID_11_"  overflow="visible"/>
			</clipPath>
			<g clip-path="url(#SVGID_12_)">
				<defs>
					<rect id="SVGID_13_" x="39.8" y="23" width="32.3" height="74"/>
				</defs>
				<clipPath id="SVGID_14_">
					<use xlink:href="#SVGID_13_"  overflow="visible"/>
				</clipPath>
			</g>
		</g>
	</g>
</g>
<path fill="#332B2A" d="M192.9,69.7h-0.4c-0.8,1.6-2,3.5-3.6,5.4c-1.6,2-3.6,3.8-5.9,5.6c-2.4,1.8-5.2,3.2-8.6,4.4
	c-3.3,1.2-7.2,1.8-11.7,1.8c-5,0-9.7-0.9-14-2.8c-4.3-1.9-8-4.4-11.1-7.5c-3.1-3.1-5.5-6.8-7.3-11.1c-1.8-4.2-2.6-8.7-2.6-13.4
	c0-5.6,1.1-10.5,3.2-14.8c2.1-4.3,4.8-7.9,8.1-10.8c3.3-2.9,7-5.2,11.2-6.6c4.2-1.5,8.3-2.2,12.4-2.2c2.7,0,5.4,0.3,8.2,1
	c0.2,0,0.4,0.1,0.6,0.2L167,8.1c-1.6-0.2-3.1-0.3-4.6-0.3c-6.3,0-12.2,1.2-17.7,3.6c-5.5,2.4-10.3,5.6-14.4,9.6
	c-4.1,4-7.4,8.7-9.7,14.1c-2.4,5.4-3.6,11.1-3.6,17.2c0,5.9,1.1,11.5,3.4,16.9c2.3,5.4,5.4,10.1,9.4,14.1c4,4.1,8.8,7.3,14.4,9.7
	c5.6,2.4,11.6,3.6,18.2,3.6c6.3,0,11.8-0.9,16.5-2.7c4.7-1.8,8.7-4.1,12.1-6.8c2.6-2.1,4.8-4.3,6.6-6.6L192.9,69.7z"/>
<polygon fill="#332B2A" points="185.5,10 197.1,10 226.9,81.1 257.2,10 268.8,10 233.1,94.6 221.2,94.6 "/>
<path fill="#332B2A" d="M334.1,81.4c-2.1,1.4-4.6,2.7-7.5,3.7c-3.3,1.2-7.2,1.8-11.7,1.8c-5,0-9.7-0.9-14-2.8
	c-4.3-1.9-8-4.4-11.1-7.5c-3.1-3.1-5.5-6.8-7.3-11.1c-1.8-4.2-2.6-8.7-2.6-13.4c0-5.6,1.1-10.5,3.2-14.8c2.1-4.3,4.8-7.9,8.1-10.8
	c3.3-2.9,7-5.2,11.2-6.6c4.2-1.5,8.3-2.2,12.4-2.2c2.7,0,5.4,0.3,8.2,1c2.8,0.7,5.5,1.7,8.1,3.2c1.2,0.6,2.3,1.4,3.4,2.2
	c1.6-3,3.5-5.8,5.6-8.5c-0.7-0.5-1.4-0.9-2.1-1.4c-3.8-2.2-7.8-3.8-11.8-4.8c-4.1-1-8-1.5-11.7-1.5c-6.3,0-12.2,1.2-17.7,3.6
	c-5.5,2.4-10.3,5.6-14.5,9.6c-4.1,4-7.4,8.7-9.7,14.1c-2.4,5.4-3.6,11.1-3.6,17.2c0,5.9,1.1,11.5,3.4,16.9
	c2.3,5.4,5.4,10.1,9.4,14.1c4,4.1,8.8,7.3,14.4,9.7c5.6,2.4,11.6,3.6,18.2,3.6c6.3,0,11.8-0.9,16.5-2.7c3.1-1.2,5.8-2.6,8.3-4.1
	C337.5,87.1,335.7,84.4,334.1,81.4"/>
<path fill="#332B2A" d="M354.6,57c0.2,4.1,1.2,8,3.1,11.7c1.9,3.7,4.3,7,7.3,9.7c3,2.8,6.5,5,10.4,6.6c3.9,1.7,7.9,2.5,12,2.5
	c3.8-0.1,7.4-0.7,10.7-1.8c3.3-1.1,6.2-2.5,8.8-4.3c2.6-1.8,4.8-3.9,6.6-6.3c1.9-2.4,3.2-4.9,4.2-7.6h11.4
	c-1.4,4.2-3.5,8.1-6.2,11.8c-2.7,3.6-5.9,6.7-9.5,9.4c-3.7,2.7-7.7,4.8-12.1,6.3c-4.4,1.5-9,2.2-13.8,2.2c-5.9,0-11.5-1.1-16.8-3.4
	c-5.4-2.3-10.1-5.4-14.1-9.4c-4-4-7.2-8.6-9.6-14c-2.4-5.4-3.6-11.2-3.6-17.5c0-6,1.1-11.6,3.4-17c2.3-5.4,5.4-10,9.4-14.1
	c4-4,8.6-7.2,13.9-9.7c5.3-2.4,11-3.7,17.2-3.8c4.6,0,8.9,0.6,12.9,1.9c4,1.3,7.5,3,10.7,5c3.1,2.1,5.9,4.4,8.3,7
	c2.4,2.6,4.3,5.2,5.9,7.7c2.5,4,4.2,8,5.2,12.1c1,4,1.5,7.9,1.5,11.6c0,0.5,0,1-0.1,1.6c-0.1,0.5-0.1,1-0.1,1.5H354.6z M420.6,47.3
	c-0.8-4.9-2.4-9.2-4.7-12.9c-2.3-3.7-5-6.7-8.1-9c-3.1-2.4-6.4-4.1-9.9-5.3c-3.5-1.1-7-1.7-10.4-1.7c-3.3,0-6.7,0.6-10.3,1.7
	c-3.6,1.1-6.9,2.9-10,5.3c-3.1,2.4-5.8,5.4-8.1,9c-2.3,3.7-3.8,8-4.6,12.9H420.6z"/>
<path fill="#5D4F4B" d="M118.1,94.9c-5.5-5.5-9.8-12-12.9-19.3c-3.1-7.4-4.7-15.2-4.7-23.2c0-8.3,1.7-16.3,4.9-23.8
	c3.2-7.3,7.7-13.8,13.3-19.3c0.4-0.4,0.8-0.8,1.2-1.1H74.3C42.7,55.4,70.6,94.1,72.1,97h48.3C119.6,96.3,118.8,95.6,118.1,94.9"/>
<path opacity="0.8" fill="#5D4F4B" d="M72,97C72.1,97,72.1,97,72,97c-1.2-1.1-27.4-28-12.1-74H43.5C27,77.3,70.6,97,72,97L72,97z"/>
<path opacity="0.6" fill="#5D4F4B" d="M36.4,35.9H22.2C16.8,69.9,49.6,97,71.9,97C68.3,95.9,30,78.8,36.4,35.9"/>
<g opacity="0.4">
	<defs>
		<rect id="SVGID_15_" x="6.5" y="48.7" opacity="0.4" width="64" height="48.3"/>
	</defs>
	<clipPath id="SVGID_16_">
		<use xlink:href="#SVGID_15_"  overflow="visible"/>
	</clipPath>
</g>
<path opacity="0.4" fill="#5D4F4B" d="M17.7,48.7H6.5C6.1,68.7,28.2,96.2,70.5,97C50.9,96,19.9,75.7,17.7,48.7"/>
<g>
	<path fill="#5D4F4B" d="M79.4,135.5h-8.7v-1c0.2,0,0.6,0,1.1-0.1s0.8-0.1,1-0.2c0.3-0.1,0.5-0.3,0.7-0.5s0.2-0.5,0.2-0.9v-14.1
		c0-0.3-0.1-0.6-0.2-0.8c-0.1-0.2-0.3-0.4-0.7-0.5c-0.3-0.1-0.6-0.2-1-0.3c-0.4-0.1-0.8-0.2-1-0.2v-1h8.7v1c-0.3,0-0.6,0-1,0.1
		c-0.4,0.1-0.7,0.1-1,0.2c-0.3,0.1-0.6,0.3-0.7,0.5c-0.1,0.2-0.2,0.5-0.2,0.8v14c0,0.3,0.1,0.6,0.2,0.8c0.1,0.2,0.4,0.4,0.7,0.6
		c0.2,0.1,0.5,0.2,0.9,0.2c0.4,0.1,0.8,0.1,1.1,0.1V135.5z"/>
	<path fill="#5D4F4B" d="M96.4,135.5h-6.6v-0.9c0.2,0,0.4,0,0.7-0.1c0.3,0,0.5-0.1,0.6-0.1c0.3-0.1,0.4-0.2,0.6-0.4s0.2-0.5,0.2-0.8
		v-6.9c0-1-0.2-1.7-0.7-2.2c-0.5-0.5-1-0.8-1.7-0.8c-0.5,0-0.9,0.1-1.3,0.2s-0.8,0.3-1.1,0.6c-0.3,0.2-0.5,0.4-0.7,0.7
		s-0.3,0.4-0.4,0.6v7.8c0,0.3,0.1,0.6,0.2,0.8c0.1,0.2,0.3,0.4,0.6,0.5c0.2,0.1,0.4,0.2,0.6,0.2c0.2,0,0.5,0.1,0.7,0.1v0.9h-6.6
		v-0.9c0.2,0,0.4,0,0.6-0.1c0.2,0,0.4-0.1,0.6-0.1c0.3-0.1,0.4-0.2,0.6-0.4s0.2-0.5,0.2-0.8v-8.3c0-0.3-0.1-0.6-0.2-0.9
		c-0.1-0.3-0.3-0.5-0.6-0.6c-0.2-0.1-0.4-0.2-0.6-0.2c-0.2,0-0.5-0.1-0.8-0.1v-0.9l4.5-0.3L86,122v1.9h0.1c0.2-0.2,0.5-0.5,0.8-0.8
		s0.6-0.6,0.9-0.7c0.3-0.2,0.7-0.4,1.2-0.5s1-0.2,1.6-0.2c1.3,0,2.3,0.4,2.9,1.2c0.6,0.8,0.9,1.9,0.9,3.2v7c0,0.3,0.1,0.6,0.2,0.8
		s0.3,0.3,0.6,0.5c0.2,0.1,0.4,0.2,0.6,0.2c0.2,0,0.4,0.1,0.7,0.1V135.5z"/>
	<path fill="#5D4F4B" d="M112.9,135.5h-6.6v-0.9c0.2,0,0.4,0,0.7-0.1c0.3,0,0.5-0.1,0.6-0.1c0.3-0.1,0.4-0.2,0.6-0.4
		s0.2-0.5,0.2-0.8v-6.9c0-1-0.2-1.7-0.7-2.2c-0.5-0.5-1-0.8-1.7-0.8c-0.5,0-0.9,0.1-1.3,0.2s-0.8,0.3-1.1,0.6
		c-0.3,0.2-0.5,0.4-0.7,0.7s-0.3,0.4-0.4,0.6v7.8c0,0.3,0.1,0.6,0.2,0.8c0.1,0.2,0.3,0.4,0.6,0.5c0.2,0.1,0.4,0.2,0.6,0.2
		c0.2,0,0.5,0.1,0.7,0.1v0.9H98v-0.9c0.2,0,0.4,0,0.6-0.1c0.2,0,0.4-0.1,0.6-0.1c0.3-0.1,0.4-0.2,0.6-0.4s0.2-0.5,0.2-0.8v-8.3
		c0-0.3-0.1-0.6-0.2-0.9c-0.1-0.3-0.3-0.5-0.6-0.6c-0.2-0.1-0.4-0.2-0.6-0.2c-0.2,0-0.5-0.1-0.8-0.1v-0.9l4.5-0.3l0.2,0.2v1.9h0.1
		c0.2-0.2,0.5-0.5,0.8-0.8s0.6-0.6,0.9-0.7c0.3-0.2,0.7-0.4,1.2-0.5s1-0.2,1.6-0.2c1.3,0,2.3,0.4,2.9,1.2c0.6,0.8,0.9,1.9,0.9,3.2v7
		c0,0.3,0.1,0.6,0.2,0.8s0.3,0.3,0.6,0.5c0.2,0.1,0.4,0.2,0.6,0.2c0.2,0,0.4,0.1,0.7,0.1V135.5z"/>
	<path fill="#5D4F4B" d="M127.7,128.6c0,0.9-0.2,1.9-0.5,2.8s-0.7,1.7-1.3,2.3c-0.6,0.7-1.4,1.3-2.2,1.6c-0.8,0.4-1.8,0.5-2.8,0.5
		c-0.9,0-1.7-0.2-2.5-0.5s-1.5-0.8-2.1-1.4c-0.6-0.6-1.1-1.4-1.4-2.2s-0.5-1.9-0.5-3c0-2.1,0.6-3.8,1.8-5.2c1.2-1.3,2.8-2,4.8-2
		c1.9,0,3.4,0.6,4.7,1.9S127.7,126.5,127.7,128.6z M124.9,128.6c0-0.7-0.1-1.4-0.2-2.2c-0.1-0.8-0.3-1.4-0.6-1.9
		c-0.3-0.6-0.7-1-1.2-1.4c-0.5-0.3-1.1-0.5-1.7-0.5c-0.7,0-1.3,0.2-1.8,0.5s-0.9,0.8-1.2,1.4c-0.3,0.6-0.5,1.2-0.6,1.9
		c-0.1,0.7-0.2,1.4-0.2,2.1c0,0.9,0.1,1.7,0.2,2.4c0.1,0.7,0.4,1.4,0.7,2c0.3,0.6,0.7,1,1.2,1.4c0.5,0.3,1.1,0.5,1.7,0.5
		c1.1,0,2-0.6,2.7-1.7S124.9,130.6,124.9,128.6z"/>
	<path fill="#5D4F4B" d="M143,122.8c-0.4,0.1-0.8,0.2-1.2,0.4s-0.7,0.6-1,1.2c-0.5,1.2-1.1,2.5-1.7,3.8s-1.2,2.7-1.8,4.2
		c-0.2,0.4-0.4,0.9-0.6,1.5s-0.4,1.1-0.6,1.7h-1.1c-0.9-2.1-1.7-4.1-2.4-5.9c-0.7-1.8-1.5-3.6-2.3-5.4c-0.2-0.4-0.5-0.7-0.9-1
		c-0.4-0.2-0.8-0.4-1.2-0.4V122h6.2v1c-0.3,0-0.6,0.1-1,0.2s-0.6,0.2-0.6,0.4c0,0,0,0.1,0.1,0.2c0,0.1,0.1,0.2,0.1,0.4
		c0.4,0.9,0.9,2.2,1.6,3.9s1.2,3,1.7,4c0.3-0.8,0.7-1.8,1.2-2.9c0.5-1.2,1-2.5,1.6-3.9c0.1-0.2,0.2-0.5,0.3-0.7s0.1-0.4,0.1-0.6
		c0-0.2-0.1-0.3-0.2-0.4s-0.3-0.2-0.5-0.3c-0.2-0.1-0.4-0.2-0.6-0.2s-0.4-0.1-0.5-0.1V122h5.2V122.8z"/>
	<path fill="#5D4F4B" d="M156.3,135.2c-0.4,0.2-0.8,0.3-1.1,0.4c-0.3,0.1-0.7,0.1-1.1,0.1c-0.7,0-1.3-0.2-1.7-0.5s-0.7-0.8-0.8-1.5
		h-0.1c-0.6,0.7-1.2,1.2-1.9,1.5c-0.7,0.3-1.5,0.5-2.5,0.5c-1,0-1.8-0.3-2.5-0.9c-0.7-0.6-1-1.4-1-2.4c0-0.5,0.1-1,0.2-1.4
		c0.1-0.4,0.4-0.8,0.7-1.1c0.2-0.3,0.5-0.5,0.9-0.7c0.4-0.2,0.7-0.4,1.1-0.5c0.4-0.2,1.2-0.4,2.5-0.9c1.3-0.4,2.1-0.7,2.5-1v-1.4
		c0-0.1,0-0.3-0.1-0.7c-0.1-0.3-0.2-0.7-0.3-1c-0.2-0.3-0.4-0.6-0.8-0.9c-0.3-0.3-0.8-0.4-1.4-0.4c-0.4,0-0.8,0.1-1.2,0.2
		c-0.4,0.1-0.6,0.3-0.8,0.4c0,0.2,0,0.5,0.1,0.8c0.1,0.4,0.1,0.7,0.1,1c0,0.3-0.1,0.6-0.4,0.9s-0.7,0.4-1.2,0.4
		c-0.5,0-0.8-0.2-1-0.5c-0.2-0.3-0.3-0.7-0.3-1.1c0-0.4,0.1-0.8,0.4-1.2c0.3-0.4,0.7-0.7,1.2-1c0.4-0.3,0.9-0.5,1.5-0.6
		c0.6-0.2,1.2-0.3,1.7-0.3c0.8,0,1.4,0.1,2,0.2c0.6,0.1,1.1,0.3,1.6,0.7c0.5,0.3,0.8,0.8,1.1,1.4c0.2,0.6,0.4,1.3,0.4,2.2
		c0,1.3,0,2.5,0,3.5s0,2.1,0,3.3c0,0.4,0.1,0.6,0.2,0.8s0.3,0.4,0.6,0.5c0.1,0.1,0.4,0.1,0.6,0.1c0.3,0,0.6,0,0.9,0V135.2z
		 M151.6,128c-0.8,0.2-1.5,0.5-2,0.7c-0.6,0.2-1.1,0.5-1.6,0.8c-0.5,0.3-0.8,0.7-1.1,1.1c-0.3,0.4-0.4,0.9-0.4,1.5
		c0,0.8,0.2,1.3,0.6,1.7s0.9,0.5,1.5,0.5c0.6,0,1.2-0.2,1.7-0.5s0.9-0.7,1.2-1.1L151.6,128z"/>
	<path fill="#5D4F4B" d="M166,134.9c-0.6,0.2-1.2,0.5-1.7,0.6c-0.5,0.2-1.2,0.3-1.9,0.3c-1.1,0-1.9-0.3-2.4-0.9
		c-0.5-0.6-0.7-1.4-0.7-2.4v-9.1h-2.4V122h2.5v-4.2h2.5v4.2h3.9v1.3h-3.8v7.5c0,0.6,0,1,0.1,1.4s0.1,0.7,0.3,1
		c0.1,0.3,0.4,0.5,0.7,0.6c0.3,0.1,0.7,0.2,1.2,0.2c0.2,0,0.6,0,1-0.1c0.4,0,0.8-0.1,0.9-0.2V134.9z"/>
	<path fill="#5D4F4B" d="M173.9,135.5h-6.5v-0.9c0.2,0,0.4,0,0.6-0.1c0.2,0,0.4-0.1,0.6-0.1c0.3-0.1,0.4-0.2,0.6-0.4
		s0.2-0.5,0.2-0.8v-8.3c0-0.3-0.1-0.6-0.2-0.8c-0.1-0.2-0.3-0.4-0.6-0.6c-0.2-0.1-0.4-0.2-0.8-0.3s-0.6-0.1-0.9-0.1v-0.9l4.8-0.3
		l0.2,0.2v11c0,0.3,0.1,0.6,0.2,0.8c0.1,0.2,0.3,0.4,0.6,0.5c0.2,0.1,0.4,0.1,0.6,0.2c0.2,0,0.4,0.1,0.6,0.1V135.5z M172.2,116.5
		c0,0.5-0.2,1-0.5,1.4s-0.8,0.6-1.3,0.6c-0.5,0-0.9-0.2-1.2-0.6s-0.5-0.8-0.5-1.3c0-0.5,0.2-0.9,0.5-1.3s0.7-0.6,1.2-0.6
		c0.5,0,0.9,0.2,1.3,0.5C172,115.6,172.2,116,172.2,116.5z"/>
	<path fill="#5D4F4B" d="M190.4,135.5h-6.6v-0.9c0.2,0,0.4,0,0.7-0.1c0.3,0,0.5-0.1,0.6-0.1c0.3-0.1,0.4-0.2,0.6-0.4
		s0.2-0.5,0.2-0.8v-6.9c0-1-0.2-1.7-0.7-2.2c-0.5-0.5-1-0.8-1.7-0.8c-0.5,0-0.9,0.1-1.3,0.2s-0.8,0.3-1.1,0.6
		c-0.3,0.2-0.5,0.4-0.7,0.7s-0.3,0.4-0.4,0.6v7.8c0,0.3,0.1,0.6,0.2,0.8c0.1,0.2,0.3,0.4,0.6,0.5c0.2,0.1,0.4,0.2,0.6,0.2
		c0.2,0,0.5,0.1,0.7,0.1v0.9h-6.6v-0.9c0.2,0,0.4,0,0.6-0.1c0.2,0,0.4-0.1,0.6-0.1c0.3-0.1,0.4-0.2,0.6-0.4s0.2-0.5,0.2-0.8v-8.3
		c0-0.3-0.1-0.6-0.2-0.9c-0.1-0.3-0.3-0.5-0.6-0.6c-0.2-0.1-0.4-0.2-0.6-0.2c-0.2,0-0.5-0.1-0.8-0.1v-0.9l4.5-0.3l0.2,0.2v1.9h0.1
		c0.2-0.2,0.5-0.5,0.8-0.8s0.6-0.6,0.9-0.7c0.3-0.2,0.7-0.4,1.2-0.5s1-0.2,1.6-0.2c1.3,0,2.3,0.4,2.9,1.2c0.6,0.8,0.9,1.9,0.9,3.2v7
		c0,0.3,0.1,0.6,0.2,0.8s0.3,0.3,0.6,0.5c0.2,0.1,0.4,0.2,0.6,0.2s0.4,0.1,0.7,0.1V135.5z"/>
	<path fill="#5D4F4B" d="M203.6,134.1c0.4,0.3,0.7,0.7,0.9,1.2s0.3,1,0.3,1.6s-0.1,1.3-0.4,1.8s-0.7,1.1-1.3,1.5
		c-0.6,0.4-1.3,0.8-2.2,1s-1.9,0.4-3.1,0.4c-2,0-3.6-0.3-4.6-0.9s-1.5-1.5-1.5-2.6c0-0.9,0.4-1.7,1.1-2.2s1.7-0.8,2.8-0.9v-0.2
		c-0.3-0.1-0.6-0.2-0.8-0.3s-0.5-0.3-0.8-0.4c-0.2-0.2-0.4-0.4-0.6-0.7s-0.2-0.6-0.2-1c0-0.5,0.2-0.9,0.5-1.3s0.9-0.8,1.6-1v-0.2
		c-0.9-0.4-1.6-0.9-2-1.6s-0.7-1.4-0.7-2.2c0-1.3,0.5-2.3,1.4-3.1s2.2-1.2,3.7-1.2c0.4,0,0.8,0,1.2,0.1s0.8,0.2,1.2,0.3h4.7v1.3
		h-3.2v0.1c0.3,0.4,0.6,0.8,0.8,1.3s0.2,0.9,0.2,1.4c0,1.2-0.5,2.2-1.4,3s-2.1,1.2-3.4,1.2h-1.7c-0.2,0.1-0.4,0.2-0.7,0.4
		s-0.3,0.5-0.3,0.8c0,0.3,0.1,0.6,0.3,0.8s0.4,0.3,0.7,0.4c0.3,0.1,0.6,0.1,0.9,0.1s0.7,0,1.1,0c0.4,0,1,0,1.6,0.1s1.2,0.1,1.5,0.1
		c0.4,0,0.8,0.1,1.3,0.3S203.3,133.7,203.6,134.1z M202.6,137.4c0-0.5-0.1-0.9-0.4-1.3s-0.6-0.6-1.1-0.7c-0.3,0-0.8-0.1-1.6-0.1
		s-1.7-0.1-2.8-0.1c-1,0.2-1.7,0.5-2.1,1s-0.6,1-0.6,1.7c0,0.3,0.1,0.6,0.2,0.9s0.4,0.6,0.7,0.8c0.3,0.2,0.7,0.4,1.3,0.6
		s1.2,0.2,2,0.2c1.3,0,2.4-0.3,3.2-0.8S202.6,138.4,202.6,137.4z M200,126.1c0-1.1-0.2-1.9-0.6-2.5s-1-1-1.8-1
		c-0.4,0-0.8,0.1-1.1,0.3s-0.6,0.4-0.7,0.8c-0.2,0.3-0.3,0.7-0.4,1.1s-0.1,0.9-0.1,1.3c0,1,0.2,1.8,0.7,2.5s1,1,1.7,1
		c0.8,0,1.4-0.3,1.8-1S200,127,200,126.1z"/>
	<path fill="#5D4F4B" d="M229.8,129.7l-0.4,5.7h-16.1v-1c0.3,0,0.6-0.1,1.1-0.1s0.8-0.1,0.9-0.2c0.3-0.1,0.5-0.3,0.6-0.5
		s0.2-0.5,0.2-0.8v-13.9c0-0.3,0-0.6-0.2-0.8s-0.3-0.4-0.6-0.6c-0.2-0.1-0.6-0.2-1-0.3s-0.7-0.1-1-0.2v-1h15v4.7h-1
		c-0.2-0.7-0.6-1.4-1.2-2.2s-1.2-1.2-1.7-1.3c-0.3,0-0.6-0.1-1-0.1s-0.8,0-1.3,0h-3v7.7h2.2c0.7,0,1.2-0.1,1.5-0.2s0.6-0.4,0.9-0.7
		c0.2-0.3,0.4-0.6,0.5-1.1s0.2-0.9,0.3-1.3h1v7.6h-1c0-0.4-0.1-0.9-0.3-1.4s-0.3-0.8-0.5-1.1c-0.3-0.4-0.6-0.6-1-0.7
		s-0.8-0.2-1.4-0.2H219v5.8c0,0.6,0,1,0.1,1.4s0.2,0.6,0.5,0.8s0.6,0.3,1,0.3c0.4,0,1,0.1,1.8,0.1c0.3,0,0.7,0,1.2,0s0.9,0,1.2-0.1
		c0.3,0,0.7-0.1,1.1-0.2s0.6-0.2,0.8-0.4c0.4-0.4,0.9-1.1,1.3-2s0.8-1.5,0.9-2H229.8z"/>
	<path fill="#5D4F4B" d="M245.8,135.2l-4.4,0.3l-0.2-0.2v-1.7h-0.1c-0.2,0.2-0.5,0.5-0.7,0.7c-0.3,0.3-0.6,0.5-0.9,0.7
		c-0.4,0.2-0.8,0.4-1.2,0.6c-0.4,0.1-0.9,0.2-1.6,0.2c-1.2,0-2.1-0.4-2.7-1.2c-0.6-0.8-0.9-1.9-0.9-3.4v-6.4c0-0.3-0.1-0.6-0.2-0.8
		s-0.3-0.4-0.5-0.6c-0.2-0.1-0.4-0.2-0.6-0.2s-0.5-0.1-0.8-0.1v-0.9l4.5-0.3l0.2,0.2v9.4c0,1,0.2,1.7,0.7,2.2s1,0.7,1.6,0.7
		c0.5,0,0.9-0.1,1.3-0.2c0.4-0.2,0.7-0.3,1-0.5c0.2-0.2,0.5-0.4,0.6-0.6s0.3-0.4,0.4-0.6v-7.6c0-0.3-0.1-0.6-0.2-0.8
		s-0.3-0.4-0.5-0.6c-0.2-0.1-0.4-0.2-0.7-0.2s-0.7,0-1.1-0.1v-0.9l4.9-0.3l0.2,0.2v10.7c0,0.3,0.1,0.6,0.2,0.8s0.3,0.4,0.5,0.6
		c0.2,0.1,0.4,0.2,0.6,0.2c0.2,0,0.5,0.1,0.8,0.1V135.2z"/>
	<path fill="#5D4F4B" d="M257.8,123.7c0,0.5-0.1,0.9-0.3,1.2s-0.6,0.5-1.1,0.5c-0.5,0-0.9-0.1-1.2-0.4s-0.4-0.6-0.4-0.9
		c0-0.2,0-0.4,0-0.5s0.1-0.3,0.1-0.5c-0.4,0-0.9,0.2-1.5,0.5s-1.1,0.8-1.5,1.5v7.8c0,0.3,0.1,0.6,0.2,0.8s0.3,0.4,0.6,0.5
		c0.2,0.1,0.5,0.2,0.9,0.2s0.7,0.1,0.9,0.1v0.9h-7.1v-0.9c0.2,0,0.4,0,0.6-0.1s0.4-0.1,0.6-0.1c0.3-0.1,0.4-0.2,0.6-0.4
		s0.2-0.5,0.2-0.8v-8.3c0-0.3-0.1-0.6-0.2-0.8c-0.1-0.3-0.3-0.5-0.6-0.7c-0.2-0.1-0.4-0.2-0.6-0.2s-0.5-0.1-0.8-0.1v-0.9l4.5-0.3
		l0.2,0.2v1.9h0.1c0.6-0.7,1.2-1.3,1.9-1.7s1.3-0.6,1.9-0.6s1,0.2,1.4,0.6S257.8,123.1,257.8,123.7z"/>
	<path fill="#5D4F4B" d="M272.1,128.6c0,0.9-0.2,1.9-0.5,2.8c-0.3,0.9-0.7,1.7-1.3,2.3c-0.6,0.7-1.4,1.3-2.2,1.6s-1.8,0.5-2.8,0.5
		c-0.9,0-1.7-0.2-2.5-0.5s-1.5-0.8-2.1-1.4c-0.6-0.6-1.1-1.4-1.4-2.2c-0.4-0.9-0.5-1.9-0.5-3c0-2.1,0.6-3.8,1.8-5.2
		c1.2-1.3,2.8-2,4.8-2c1.9,0,3.4,0.6,4.7,1.9S272.1,126.5,272.1,128.6z M269.3,128.6c0-0.7-0.1-1.4-0.2-2.2
		c-0.1-0.8-0.3-1.4-0.6-1.9c-0.3-0.6-0.7-1-1.2-1.4s-1.1-0.5-1.7-0.5c-0.7,0-1.3,0.2-1.8,0.5c-0.5,0.3-0.9,0.8-1.2,1.4
		c-0.3,0.6-0.5,1.2-0.6,1.9c-0.1,0.7-0.2,1.4-0.2,2.1c0,0.9,0.1,1.7,0.2,2.4s0.4,1.4,0.7,2s0.7,1,1.2,1.4c0.5,0.3,1.1,0.5,1.7,0.5
		c1.1,0,2-0.6,2.7-1.7C269,132.1,269.3,130.6,269.3,128.6z"/>
	<path fill="#5D4F4B" d="M286.4,123.6c0.5,0.6,1,1.4,1.3,2.2s0.4,1.8,0.4,2.9c0,1.1-0.2,2-0.5,2.9s-0.8,1.6-1.4,2.2
		c-0.6,0.6-1.3,1.1-2,1.4s-1.5,0.5-2.4,0.5c-0.8,0-1.5-0.1-2-0.3s-0.9-0.4-1.3-0.6h-0.1v4.1c0,0.3,0.1,0.6,0.2,0.8
		c0.1,0.2,0.3,0.4,0.6,0.5c0.2,0.1,0.5,0.2,0.9,0.2c0.4,0.1,0.7,0.1,1,0.1v0.9h-7.5v-0.9c0.3,0,0.6,0,0.8-0.1s0.5-0.1,0.7-0.1
		c0.3-0.1,0.5-0.3,0.6-0.5s0.2-0.5,0.2-0.8v-14.3c0-0.3-0.1-0.5-0.2-0.8s-0.3-0.5-0.5-0.6c-0.2-0.1-0.4-0.2-0.7-0.3
		s-0.6-0.1-0.8-0.1v-0.9l4.6-0.3l0.2,0.2v1.5l0.1,0c0.5-0.5,1.1-1,1.8-1.4s1.4-0.5,2.1-0.5c0.8,0,1.6,0.2,2.3,0.5
		S285.9,123,286.4,123.6z M284.2,133.3c0.4-0.6,0.6-1.2,0.8-2s0.3-1.6,0.3-2.5c0-0.7-0.1-1.4-0.2-2.1s-0.4-1.3-0.7-1.8
		c-0.3-0.5-0.7-1-1.2-1.3s-1.1-0.5-1.8-0.5c-0.7,0-1.2,0.1-1.7,0.4s-0.9,0.6-1.2,1.1v8c0.1,0.2,0.2,0.5,0.4,0.8s0.4,0.5,0.6,0.7
		c0.3,0.2,0.6,0.4,0.9,0.6s0.7,0.2,1.2,0.2c0.5,0,1-0.1,1.5-0.4S283.8,133.8,284.2,133.3z"/>
	<path fill="#5D4F4B" d="M302,132.3c-0.6,1.1-1.3,1.9-2.3,2.6s-2,1-3.3,1c-1.1,0-2-0.2-2.9-0.6s-1.5-0.9-2-1.6s-0.9-1.4-1.2-2.3
		s-0.4-1.8-0.4-2.8c0-0.9,0.1-1.7,0.4-2.6s0.7-1.6,1.2-2.3c0.5-0.6,1.2-1.2,1.9-1.6s1.6-0.6,2.6-0.6c1,0,1.8,0.2,2.5,0.5
		s1.3,0.7,1.7,1.3c0.4,0.5,0.7,1.1,0.9,1.8s0.3,1.4,0.3,2.3v0.9h-8.9c0,0.9,0.1,1.7,0.3,2.4s0.4,1.4,0.8,1.9
		c0.4,0.5,0.8,0.9,1.4,1.3s1.3,0.5,2.1,0.5c0.8,0,1.5-0.2,2.1-0.6s1.2-1.1,1.7-2.1L302,132.3z M299,127.1c0-0.5,0-1.1-0.1-1.6
		c-0.1-0.6-0.2-1.1-0.4-1.5c-0.2-0.4-0.5-0.8-0.9-1s-0.8-0.4-1.4-0.4c-1,0-1.8,0.4-2.4,1.2s-1,1.9-1,3.3H299z"/>
	<path fill="#5D4F4B" d="M316.4,135.2c-0.4,0.2-0.8,0.3-1.1,0.4s-0.7,0.1-1.1,0.1c-0.7,0-1.3-0.2-1.7-0.5s-0.7-0.8-0.8-1.5h-0.1
		c-0.6,0.7-1.2,1.2-1.9,1.5s-1.5,0.5-2.5,0.5c-1,0-1.8-0.3-2.5-0.9s-1-1.4-1-2.4c0-0.5,0.1-1,0.2-1.4s0.4-0.8,0.7-1.1
		c0.2-0.3,0.5-0.5,0.9-0.7s0.7-0.4,1.1-0.5c0.4-0.2,1.2-0.4,2.5-0.9s2.1-0.7,2.5-1v-1.4c0-0.1,0-0.3-0.1-0.7s-0.2-0.7-0.3-1
		c-0.2-0.3-0.4-0.6-0.8-0.9s-0.8-0.4-1.4-0.4c-0.4,0-0.8,0.1-1.2,0.2s-0.6,0.3-0.8,0.4c0,0.2,0,0.5,0.1,0.8s0.1,0.7,0.1,1
		c0,0.3-0.1,0.6-0.4,0.9s-0.7,0.4-1.2,0.4c-0.5,0-0.8-0.2-1-0.5s-0.3-0.7-0.3-1.1c0-0.4,0.1-0.8,0.4-1.2s0.7-0.7,1.2-1
		c0.4-0.3,0.9-0.5,1.5-0.6s1.2-0.3,1.7-0.3c0.8,0,1.4,0.1,2,0.2s1.1,0.3,1.6,0.7c0.5,0.3,0.8,0.8,1.1,1.4s0.4,1.3,0.4,2.2
		c0,1.3,0,2.5,0,3.5s0,2.1,0,3.3c0,0.4,0.1,0.6,0.2,0.8s0.3,0.4,0.6,0.5c0.1,0.1,0.4,0.1,0.6,0.1s0.6,0,0.9,0V135.2z M311.6,128
		c-0.8,0.2-1.5,0.5-2,0.7c-0.6,0.2-1.1,0.5-1.6,0.8c-0.5,0.3-0.8,0.7-1.1,1.1s-0.4,0.9-0.4,1.5c0,0.8,0.2,1.3,0.6,1.7
		s0.9,0.5,1.5,0.5c0.6,0,1.2-0.2,1.7-0.5s0.9-0.7,1.2-1.1L311.6,128z"/>
	<path fill="#5D4F4B" d="M332.6,135.5H326v-0.9c0.2,0,0.4,0,0.7-0.1s0.5-0.1,0.6-0.1c0.3-0.1,0.4-0.2,0.6-0.4s0.2-0.5,0.2-0.8v-6.9
		c0-1-0.2-1.7-0.7-2.2s-1-0.8-1.7-0.8c-0.5,0-0.9,0.1-1.3,0.2s-0.8,0.3-1.1,0.6c-0.3,0.2-0.5,0.4-0.7,0.7c-0.2,0.2-0.3,0.4-0.4,0.6
		v7.8c0,0.3,0.1,0.6,0.2,0.8s0.3,0.4,0.6,0.5c0.2,0.1,0.4,0.2,0.6,0.2s0.5,0.1,0.7,0.1v0.9h-6.6v-0.9c0.2,0,0.4,0,0.6-0.1
		s0.4-0.1,0.6-0.1c0.3-0.1,0.4-0.2,0.6-0.4s0.2-0.5,0.2-0.8v-8.3c0-0.3-0.1-0.6-0.2-0.9c-0.1-0.3-0.3-0.5-0.6-0.6
		c-0.2-0.1-0.4-0.2-0.6-0.2s-0.5-0.1-0.8-0.1v-0.9l4.5-0.3l0.2,0.2v1.9h0.1c0.2-0.2,0.5-0.5,0.8-0.8s0.6-0.6,0.9-0.7
		c0.3-0.2,0.7-0.4,1.2-0.5s1-0.2,1.6-0.2c1.3,0,2.3,0.4,2.9,1.2s0.9,1.9,0.9,3.2v7c0,0.3,0.1,0.6,0.2,0.8s0.3,0.3,0.6,0.5
		c0.2,0.1,0.4,0.2,0.6,0.2s0.4,0.1,0.7,0.1V135.5z"/>
	<path fill="#5D4F4B" d="M353.4,126.6c0.4,0.5,0.7,1,0.9,1.5s0.3,1.2,0.3,1.9c0,1.7-0.6,3.1-1.9,4.2s-2.8,1.7-4.7,1.7
		c-0.9,0-1.7-0.1-2.6-0.4s-1.6-0.6-2.2-1l-0.6,1h-1.1l-0.2-6.6h1.1c0.2,0.8,0.5,1.6,0.8,2.2s0.7,1.3,1.2,1.9c0.5,0.5,1,1,1.7,1.3
		s1.4,0.5,2.2,0.5c0.6,0,1.2-0.1,1.6-0.2s0.8-0.4,1.1-0.7c0.3-0.3,0.5-0.7,0.6-1.1s0.2-0.9,0.2-1.4c0-0.8-0.2-1.5-0.7-2.2
		s-1.1-1.2-2-1.5c-0.6-0.2-1.3-0.5-2-0.8c-0.8-0.3-1.4-0.6-2-0.8c-1.1-0.5-1.9-1.1-2.5-1.9c-0.6-0.8-0.9-1.8-0.9-3.1
		c0-0.7,0.2-1.4,0.5-2.1s0.7-1.2,1.3-1.7c0.5-0.5,1.2-0.8,1.9-1.1s1.5-0.4,2.3-0.4c0.9,0,1.7,0.1,2.4,0.4s1.4,0.6,1.9,1l0.6-0.9h1.1
		l0.1,6.4h-1.1c-0.2-0.7-0.4-1.4-0.7-2.1s-0.6-1.3-1-1.8c-0.4-0.5-0.9-1-1.4-1.3s-1.3-0.5-2.1-0.5c-0.9,0-1.6,0.3-2.2,0.8
		s-0.9,1.2-0.9,2c0,0.8,0.2,1.5,0.6,2.1s1,1,1.7,1.4c0.7,0.3,1.3,0.6,2,0.8s1.3,0.5,1.9,0.7c0.5,0.2,1.1,0.5,1.6,0.8
		S353.1,126.2,353.4,126.6z"/>
	<path fill="#5D4F4B" d="M365,134.9c-0.6,0.2-1.2,0.5-1.7,0.6s-1.2,0.3-1.9,0.3c-1.1,0-1.9-0.3-2.4-0.9s-0.7-1.4-0.7-2.4v-9.1h-2.4
		V122h2.5v-4.2h2.5v4.2h3.9v1.3h-3.8v7.5c0,0.6,0,1,0.1,1.4s0.1,0.7,0.3,1c0.1,0.3,0.4,0.5,0.7,0.6s0.7,0.2,1.2,0.2
		c0.2,0,0.6,0,1-0.1s0.8-0.1,0.9-0.2V134.9z"/>
	<path fill="#5D4F4B" d="M380.8,135.2l-4.4,0.3l-0.2-0.2v-1.7h-0.1c-0.2,0.2-0.5,0.5-0.7,0.7c-0.3,0.3-0.6,0.5-0.9,0.7
		c-0.4,0.2-0.8,0.4-1.2,0.6c-0.4,0.1-0.9,0.2-1.6,0.2c-1.2,0-2.1-0.4-2.7-1.2c-0.6-0.8-0.9-1.9-0.9-3.4v-6.4c0-0.3-0.1-0.6-0.2-0.8
		s-0.3-0.4-0.5-0.6c-0.2-0.1-0.4-0.2-0.6-0.2s-0.5-0.1-0.8-0.1v-0.9l4.5-0.3l0.2,0.2v9.4c0,1,0.2,1.7,0.7,2.2s1,0.7,1.6,0.7
		c0.5,0,0.9-0.1,1.3-0.2c0.4-0.2,0.7-0.3,1-0.5c0.2-0.2,0.5-0.4,0.6-0.6s0.3-0.4,0.4-0.6v-7.6c0-0.3-0.1-0.6-0.2-0.8
		s-0.3-0.4-0.5-0.6c-0.2-0.1-0.4-0.2-0.7-0.2s-0.7,0-1.1-0.1v-0.9l4.9-0.3l0.2,0.2v10.7c0,0.3,0.1,0.6,0.2,0.8s0.3,0.4,0.5,0.6
		c0.2,0.1,0.4,0.2,0.6,0.2c0.2,0,0.5,0.1,0.8,0.1V135.2z"/>
	<path fill="#5D4F4B" d="M397.3,135.2l-4.7,0.3l-0.2-0.2v-1.3l-0.1,0c-0.5,0.5-1.1,1-1.8,1.3c-0.7,0.3-1.4,0.5-2.2,0.5
		c-0.8,0-1.5-0.2-2.2-0.5c-0.7-0.3-1.3-0.8-1.9-1.4c-0.5-0.6-1-1.4-1.3-2.3c-0.3-0.9-0.5-1.9-0.5-2.9c0-1,0.2-1.9,0.5-2.8
		s0.8-1.6,1.4-2.3c0.6-0.6,1.2-1.1,2-1.5s1.6-0.5,2.5-0.5c0.6,0,1.2,0.1,1.8,0.2s1.1,0.4,1.6,0.6v-4.7c0-0.4-0.1-0.7-0.2-1
		c-0.1-0.3-0.3-0.6-0.5-0.7c-0.3-0.2-0.6-0.3-1-0.4c-0.4-0.1-0.9-0.1-1.4-0.2v-0.8l5.5-0.3l0.2,0.2v18.2c0,0.3,0.1,0.6,0.2,0.8
		c0.1,0.2,0.3,0.4,0.5,0.6c0.2,0.1,0.4,0.2,0.8,0.2s0.6,0,0.9,0.1V135.2z M392.3,132.8V125c-0.1-0.2-0.2-0.5-0.4-0.8
		c-0.2-0.3-0.4-0.5-0.6-0.8c-0.3-0.2-0.6-0.4-0.9-0.6c-0.4-0.2-0.8-0.2-1.2-0.2c-0.5,0-1,0.1-1.5,0.4s-0.9,0.7-1.2,1.2
		c-0.3,0.5-0.6,1.2-0.8,1.9c-0.2,0.8-0.3,1.7-0.3,2.6c0,0.8,0.1,1.5,0.2,2.1c0.1,0.6,0.4,1.2,0.7,1.7c0.3,0.5,0.7,0.9,1.2,1.2
		c0.5,0.3,1.1,0.5,1.8,0.5c0.7,0,1.3-0.2,1.8-0.5C391.6,133.6,392,133.2,392.3,132.8z"/>
	<path fill="#5D4F4B" d="M405.1,135.5h-6.5v-0.9c0.2,0,0.4,0,0.6-0.1s0.4-0.1,0.6-0.1c0.3-0.1,0.4-0.2,0.6-0.4s0.2-0.5,0.2-0.8v-8.3
		c0-0.3-0.1-0.6-0.2-0.8s-0.3-0.4-0.6-0.6c-0.2-0.1-0.4-0.2-0.8-0.3s-0.6-0.1-0.9-0.1v-0.9l4.8-0.3l0.2,0.2v11
		c0,0.3,0.1,0.6,0.2,0.8s0.3,0.4,0.6,0.5c0.2,0.1,0.4,0.1,0.6,0.2c0.2,0,0.4,0.1,0.6,0.1V135.5z M403.4,116.5c0,0.5-0.2,1-0.5,1.4
		s-0.8,0.6-1.3,0.6c-0.5,0-0.9-0.2-1.2-0.6s-0.5-0.8-0.5-1.3c0-0.5,0.2-0.9,0.5-1.3s0.7-0.6,1.2-0.6c0.5,0,0.9,0.2,1.3,0.5
		S403.4,116,403.4,116.5z"/>
	<path fill="#5D4F4B" d="M418.7,132.3c-0.6,1.1-1.3,1.9-2.3,2.6s-2,1-3.3,1c-1.1,0-2-0.2-2.9-0.6s-1.5-0.9-2-1.6s-0.9-1.4-1.2-2.3
		s-0.4-1.8-0.4-2.8c0-0.9,0.1-1.7,0.4-2.6s0.7-1.6,1.2-2.3c0.5-0.6,1.2-1.2,1.9-1.6s1.6-0.6,2.6-0.6c1,0,1.8,0.2,2.5,0.5
		s1.3,0.7,1.7,1.3c0.4,0.5,0.7,1.1,0.9,1.8s0.3,1.4,0.3,2.3v0.9h-8.9c0,0.9,0.1,1.7,0.3,2.4s0.4,1.4,0.8,1.9
		c0.4,0.5,0.8,0.9,1.4,1.3s1.3,0.5,2.1,0.5c0.8,0,1.5-0.2,2.1-0.6s1.2-1.1,1.7-2.1L418.7,132.3z M415.7,127.1c0-0.5,0-1.1-0.1-1.6
		c-0.1-0.6-0.2-1.1-0.4-1.5c-0.2-0.4-0.5-0.8-0.9-1s-0.8-0.4-1.4-0.4c-1,0-1.8,0.4-2.4,1.2s-1,1.9-1,3.3H415.7z"/>
	<path fill="#5D4F4B" d="M429.2,128.9c0.4,0.3,0.7,0.7,0.9,1.1s0.3,1,0.3,1.6c0,1.2-0.5,2.3-1.4,3.1s-2.1,1.2-3.6,1.2
		c-0.8,0-1.5-0.1-2.2-0.4s-1.1-0.5-1.4-0.8l-0.3,0.9h-1l-0.1-4.7h0.9c0.1,0.4,0.2,0.8,0.5,1.2s0.5,0.9,0.9,1.3
		c0.4,0.4,0.8,0.7,1.3,1s1.1,0.4,1.7,0.4c0.9,0,1.5-0.2,2-0.6c0.5-0.4,0.7-1,0.7-1.7c0-0.4-0.1-0.7-0.2-1s-0.4-0.5-0.7-0.7
		c-0.3-0.2-0.7-0.4-1.1-0.6s-0.9-0.3-1.5-0.5c-0.4-0.1-0.9-0.3-1.4-0.5s-1-0.5-1.3-0.8c-0.4-0.3-0.7-0.7-1-1.2s-0.4-1-0.4-1.6
		c0-1.1,0.4-2,1.2-2.8s1.9-1.1,3.3-1.1c0.5,0,1.1,0.1,1.6,0.2s1,0.3,1.3,0.5l0.3-0.7h1l0.2,4.3h-0.9c-0.2-1-0.6-1.8-1.2-2.4
		s-1.4-0.9-2.3-0.9c-0.7,0-1.3,0.2-1.8,0.6c-0.4,0.4-0.6,0.8-0.6,1.4c0,0.4,0.1,0.8,0.2,1s0.4,0.5,0.6,0.7c0.3,0.2,0.6,0.4,1,0.5
		s0.9,0.3,1.5,0.5c0.6,0.2,1.2,0.4,1.7,0.7S428.9,128.5,429.2,128.9z"/>
</g>
</svg>
