<?xml version="1.0" encoding="UTF-8" standalone="no"?>
<svg width="53px" height="24px" viewBox="0 0 53 24" version="1.1" xmlns="http://www.w3.org/2000/svg" xmlns:xlink="http://www.w3.org/1999/xlink">
    <defs>
        <polygon id="path-1" points="0.0968 0.226 4.0008 0.226 4.0008 23.9997 0.0968 23.9997"></polygon>
    </defs>
    <g id="Page-1" stroke="none" stroke-width="1" fill="none" fill-rule="evenodd">
        <g transform="translate(0.000000, -1.000000)">
            <g id="Group-3" transform="translate(37.000000, 0.774300)">
                <mask id="mask-2" fill="white">
                    <use xlink:href="#path-1"></use>
                </mask>
                <g id="Clip-2"></g>
                <path d="M2.0548,1.3077 C1.3018,1.3077 0.6448,0.8787 0.3178,0.2257 L0.0968,0.2257 L0.0968,22.0517 C0.0968,23.1247 0.9678,23.9997 2.0518,23.9997 C3.1288,23.9997 4.0008,23.1247 4.0008,22.0517 L4.0008,0.2257 L3.7818,0.2257 C3.4558,0.8787 2.8058,1.3077 2.0548,1.3077" id="Fill-1" fill="#17A7E0" mask="url(#mask-2)"></path>
            </g>
            <path d="M25.0225,6.9022 C24.2715,6.9022 23.6215,6.4812 23.2975,5.8242 L23.0745,5.8242 L23.0745,22.8252 C23.0745,23.8992 23.9465,24.7742 25.0225,24.7742 C26.0965,24.7742 26.9695,23.8992 26.9695,22.8252 L26.9695,5.8242 L26.7495,5.8242 C26.4235,6.4812 25.7725,6.9022 25.0225,6.9022" id="Fill-4" fill="#EC3027"></path>
            <path d="M23.0716,2.9845 C23.0716,1.9045 23.9466,1.0325 25.0246,1.0325 C26.1056,1.0325 26.9776,1.9045 26.9776,2.9845 C26.9776,4.0625 26.1056,4.9365 25.0246,4.9365 C23.9466,4.9365 23.0716,4.0625 23.0716,2.9845" id="Fill-6" fill="#EC3027"></path>
            <path d="M1.947,24.774 L1.947,24.774 C0.872,24.774 0,23.903 0,22.826 L0,7.772 C0,6.697 0.872,5.825 1.947,5.825 C3.026,5.825 3.899,6.697 3.899,7.772 L3.899,24.774 L1.947,24.774" id="Fill-8" fill="#EC3027"></path>
            <path d="M4.949,24.774 L4.949,24.774 L4.949,7.772 C4.949,6.697 5.824,5.825 6.896,5.825 C7.975,5.825 8.846,6.697 8.846,7.772 L8.846,24.774 L8.851,24.774 C7.928,24.774 7.715,23.707 7.715,22.662 L7.716,22.662 C7.716,23.736 6.844,24.774 5.767,24.774 L4.953,24.774" id="Fill-10" fill="#EC3027"></path>
            <path d="M18.4464,5.8233 L18.4464,5.8233 C19.5204,5.8233 20.3964,6.6963 20.3964,7.7743 L20.3964,22.8273 C20.3964,23.9023 19.5204,24.7743 18.4464,24.7743 C17.3704,24.7743 16.4964,23.9023 16.4964,22.8273 L16.4964,5.8233 L18.4464,5.8233" id="Fill-12" fill="#EC3027"></path>
            <path d="M15.4417,5.8233 L15.4457,5.8233 L15.4457,22.8273 C15.4457,23.9023 14.5737,24.7743 13.4977,24.7743 C12.4207,24.7743 11.5467,23.9023 11.5467,22.8273 L11.5467,5.8233 L11.5437,5.8233 C12.4647,5.8243 12.6797,6.8953 12.6797,7.9403 L12.6767,7.9403 C12.6767,6.8633 13.5507,5.8233 14.6257,5.8233 L15.4417,5.8233" id="Fill-14" fill="#EC3027"></path>
            <path d="M45.6415,24.774 L45.6415,24.774 C44.5665,24.774 43.6945,23.902 43.6945,22.826 L43.6945,7.772 C43.6945,6.697 44.5665,5.823 45.6415,5.823 C46.7165,5.823 47.5925,6.697 47.5925,7.772 L47.5925,24.774 L45.6415,24.774" id="Fill-16" fill="#17A7E0"></path>
            <path d="M48.6489,24.774 L48.6449,24.774 L48.6449,7.772 C48.6449,6.697 49.5139,5.823 50.5949,5.823 C51.6699,5.823 52.5419,6.697 52.5419,7.772 L52.5419,24.774 L52.5449,24.774 C51.6239,24.774 51.4079,23.704 51.4079,22.661 L51.4109,22.661 C51.4109,23.735 50.5389,24.774 49.4609,24.774 L48.6489,24.774" id="Fill-18" fill="#17A7E0"></path>
            <path d="M30.095,22.8243 C30.095,21.7413 30.968,20.8683 32.05,20.8683 C33.128,20.8683 34.002,21.7413 34.002,22.8243 C34.002,23.8993 33.128,24.7743 32.05,24.7743 C30.968,24.7743 30.095,23.8993 30.095,22.8243" id="Fill-20" fill="#17A7E0"></path>
        </g>
    </g>
</svg>
